HIERARCHY
ROOT Hips
{
	OFFSET 0.000000 89.005402 0.000000
	CHANNELS 6 Xposition Yposition Zposition Xrotation Yrotation Zrotation
	JOINT Spine
	{
		OFFSET 0.116900 10.681000 0.373400
		CHANNELS 3 Xrotation Yrotation Zrotation
		JOINT Spine1
		{
			OFFSET 0.000000 13.840401 0.053500
			CHANNELS 3 Xrotation Yrotation Zrotation
			JOINT Spine2
			{
				OFFSET 0.000000 14.712700 -0.366200
				CHANNELS 3 Xrotation Yrotation Zrotation
				JOINT Neck
				{
					OFFSET 0.000000 35.415497 -3.314200
					CHANNELS 3 Xrotation Yrotation Zrotation
					JOINT Head
					{
						OFFSET 0.000000 16.899200 1.218300
						CHANNELS 3 Xrotation Yrotation Zrotation
						JOINT HeadTop_End
						{
							OFFSET 0.000000 22.206207 2.192500
							CHANNELS 3 Xrotation Yrotation Zrotation
							End Site
							{
								OFFSET 0.000000 22.314178 0.000000
							}
						}
					}
				}
				JOINT LeftShoulder
				{
					OFFSET 12.896400 26.716293 -4.548400
					CHANNELS 3 Xrotation Yrotation Zrotation
					JOINT LeftArm
					{
						OFFSET 19.027000 -4.857010 -1.718400
						CHANNELS 3 Xrotation Yrotation Zrotation
						JOINT LeftForeArm
						{
							OFFSET 24.179897 0.000000 0.000000
							CHANNELS 3 Xrotation Yrotation Zrotation
							JOINT LeftHand
							{
								OFFSET 27.156403 0.000000 0.000000
								CHANNELS 3 Xrotation Yrotation Zrotation
								JOINT LeftHandIndex1
								{
									OFFSET 16.441200 0.000000 0.000000
									CHANNELS 3 Xrotation Yrotation Zrotation
									JOINT LeftHandIndex2
									{
										OFFSET 4.821899 0.000000 0.000000
										CHANNELS 3 Xrotation Yrotation Zrotation
										JOINT LeftHandIndex3
										{
											OFFSET 6.386497 0.000000 0.000000
											CHANNELS 3 Xrotation Yrotation Zrotation
											JOINT LeftHandIndex4
											{
												OFFSET 5.188988 0.000000 0.000000
												CHANNELS 3 Xrotation Yrotation Zrotation
												End Site
												{
													OFFSET -0.178703 5.185913 0.000177
												}
											}
										}
									}
								}
								JOINT LeftHandThumb1
								{
									OFFSET 6.534897 -5.032593 5.900300
									CHANNELS 3 Xrotation Yrotation Zrotation
									JOINT LeftHandThumb2
									{
										OFFSET 3.818176 -2.204422 2.204423
										CHANNELS 3 Xrotation Yrotation Zrotation
										JOINT LeftHandThumb3
										{
											OFFSET 3.252098 -1.877594 1.877601
											CHANNELS 3 Xrotation Yrotation Zrotation
											JOINT LeftHandThumb4
											{
												OFFSET 5.251778 -3.032120 3.032117
												CHANNELS 3 Xrotation Yrotation Zrotation
												End Site
												{
													OFFSET 0.000023 6.780014 0.000000
												}
											}
										}
									}
								}
							}
						}
					}
				}
				JOINT RightShoulder
				{
					OFFSET -12.896300 26.716293 -4.548400
					CHANNELS 3 Xrotation Yrotation Zrotation
					JOINT RightArm
					{
						OFFSET -19.027000 -4.857010 -1.718400
						CHANNELS 3 Xrotation Yrotation Zrotation
						JOINT RightForeArm
						{
							OFFSET -24.179897 0.000000 0.000000
							CHANNELS 3 Xrotation Yrotation Zrotation
							JOINT RightHand
							{
								OFFSET -27.156403 0.000000 0.000000
								CHANNELS 3 Xrotation Yrotation Zrotation
								JOINT RightHandThumb1
								{
									OFFSET -6.591202 -4.852203 5.988100
									CHANNELS 3 Xrotation Yrotation Zrotation
									JOINT RightHandThumb2
									{
										OFFSET -3.818176 -2.204422 2.204423
										CHANNELS 3 Xrotation Yrotation Zrotation
										JOINT RightHandThumb3
										{
											OFFSET -3.252098 -1.877594 1.877601
											CHANNELS 3 Xrotation Yrotation Zrotation
											JOINT RightHandThumb4
											{
												OFFSET -5.251778 -3.032120 3.032117
												CHANNELS 3 Xrotation Yrotation Zrotation
												End Site
												{
													OFFSET -0.000023 6.780014 0.000000
												}
											}
										}
									}
								}
								JOINT RightHandIndex1
								{
									OFFSET -16.029404 0.000000 0.000000
									CHANNELS 3 Xrotation Yrotation Zrotation
									JOINT RightHandIndex2
									{
										OFFSET -5.213303 0.000000 0.000000
										CHANNELS 3 Xrotation Yrotation Zrotation
										JOINT RightHandIndex3
										{
											OFFSET -6.386528 0.000000 0.000000
											CHANNELS 3 Xrotation Yrotation Zrotation
											JOINT RightHandIndex4
											{
												OFFSET -5.189026 0.000000 0.000000
												CHANNELS 3 Xrotation Yrotation Zrotation
												End Site
												{
													OFFSET 0.236702 5.183624 0.001972
												}
											}
										}
									}
								}
							}
						}
					}
				}
			}
		}
	}
	JOINT LeftUpLeg
	{
		OFFSET 14.073000 -7.904099 -1.463000
		CHANNELS 3 Xrotation Yrotation Zrotation
		JOINT LeftLeg
		{
			OFFSET -0.109806 -34.073280 4.093200
			CHANNELS 3 Xrotation Yrotation Zrotation
			JOINT LeftFoot
			{
				OFFSET 0.109806 -29.899420 -6.319000
				CHANNELS 3 Xrotation Yrotation Zrotation
				JOINT LeftToeBase
				{
					OFFSET 1.551100 -14.988700 20.535801
					CHANNELS 3 Xrotation Yrotation Zrotation
					JOINT LeftToe_End
					{
						OFFSET 0.221200 0.570800 13.248301
						CHANNELS 3 Xrotation Yrotation Zrotation
						End Site
						{
							OFFSET 0.000000 13.262435 0.000000
						}
					}
				}
			}
		}
	}
	JOINT RightUpLeg
	{
		OFFSET -13.839300 -7.904099 -1.463000
		CHANNELS 3 Xrotation Yrotation Zrotation
		JOINT RightLeg
		{
			OFFSET 0.109694 -34.073219 4.093300
			CHANNELS 3 Xrotation Yrotation Zrotation
			JOINT RightFoot
			{
				OFFSET -0.109694 -29.899384 -6.319200
				CHANNELS 3 Xrotation Yrotation Zrotation
				JOINT RightToeBase
				{
					OFFSET -1.551100 -14.988700 20.535801
					CHANNELS 3 Xrotation Yrotation Zrotation
					JOINT RightToe_End
					{
						OFFSET -0.221200 0.570900 13.248299
						CHANNELS 3 Xrotation Yrotation Zrotation
						End Site
						{
							OFFSET 0.000000 13.262440 0.000000
						}
					}
				}
			}
		}
	}
}
MOTION
Frames: 7
Frame Time: 0.033333
4.470774 44.474678 12.914321 0.417351 4.072987 0.058651 -0.498525 -0.722061 -0.113272 -0.904408 -0.539595 -0.220189 -0.905804 -0.542273 -0.207948 5.047862 -0.532138 3.459725 -12.849019 1.869047 -3.300298 -0.000001 0.000000 -0.000000 1.217442 -8.159043 -3.888342 -24.688603 -44.600456 -63.046833 -0.000102 -110.544235 -0.000115 -1.591127 4.207507 36.876048 0.047660 -0.810414 6.731302 0.000004 0.003005 -0.024896 -0.000002 0.001503 -0.012451 0.000000 -0.000001 -0.000001 -43.525141 -4.916376 14.750601 5.346214 19.000470 14.590735 0.653261 6.828884 9.546756 0.000001 -0.000001 -0.000001 3.396052 10.103325 8.974174 -25.209508 30.086481 63.780354 0.000047 113.159856 -0.000040 2.416561 -0.239985 -17.478584 -27.365419 1.792381 -27.601112 4.637203 -8.634130 -0.225390 -1.273763 0.137312 -2.094882 -0.000002 -0.000001 -0.000001 0.206428 1.685018 -13.968661 0.000005 -0.003862 0.031643 -0.000003 -0.001924 0.015823 0.000000 0.000001 0.000000 -6.789303 -10.521653 14.672713 127.268049 13.586961 -2.053995 -23.633518 6.690797 -18.648467 -66.466490 17.032511 -20.975538 -0.000001 0.000001 -0.000001 -2.535511 1.427015 -14.138504 122.747256 -14.729445 3.311139 -23.729001 -4.246063 11.375230 17.019494 -20.068146 -57.627631 0.000002 -0.000002 -0.000001 
4.466326 44.471939 12.904685 0.415335 3.982272 0.075379 -0.463580 -0.680702 -0.111765 -0.869908 -0.509289 -0.217690 -0.871227 -0.512029 -0.206188 4.928834 -0.530780 3.476629 -12.620291 1.938916 -3.368636 -0.000000 0.000000 -0.000000 1.217443 -8.159043 -3.888343 -24.472201 -44.604912 -62.957549 0.000070 -110.692791 0.000061 -1.603860 2.955042 36.890347 0.047661 -0.810418 6.731301 0.000004 0.003002 -0.024895 -0.000004 0.001507 -0.012452 0.000000 -0.000002 -0.000000 -43.525141 -4.916375 14.750605 5.346217 19.000463 14.590734 0.653266 6.828882 9.546754 0.000005 -0.000001 -0.000000 3.392747 10.108153 9.044004 -25.191667 29.936514 63.988279 0.000115 113.487152 -0.000118 3.856920 -0.451571 -17.056616 -27.365421 1.792381 -27.601112 4.637200 -8.634130 -0.225389 -1.273762 0.137311 -2.094881 -0.000003 0.000001 -0.000001 0.206796 1.686439 -13.980706 -0.000006 -0.003183 0.026105 0.000008 -0.001592 0.013049 0.000000 -0.000002 -0.000000 -6.754017 -10.432223 14.664780 127.248050 13.573639 -2.060223 -23.648466 6.695228 -18.652029 -66.430884 17.055042 -21.012672 -0.000001 0.000000 -0.000001 -2.587284 1.538705 -14.161568 122.793359 -14.711394 3.314442 -23.683240 -4.243945 11.395449 17.031934 -20.058823 -57.609552 -0.000000 -0.000001 -0.000001 
4.463161 44.468582 12.893122 0.408850 3.925054 0.098924 -0.441460 -0.657983 -0.107927 -0.846683 -0.493788 -0.212303 -0.847923 -0.496543 -0.201267 4.838634 -0.532348 3.480471 -12.389453 1.973881 -3.422717 -0.000000 0.000000 0.000000 1.217442 -8.159042 -3.888342 -24.289365 -44.617299 -62.889964 0.000114 -110.775471 0.000105 -1.631442 1.611542 36.948547 0.047659 -0.810416 6.731300 0.000003 0.003004 -0.024896 -0.000003 0.001506 -0.012450 -0.000000 0.000002 -0.000000 -43.525145 -4.916375 14.750603 5.346214 19.000463 14.590730 0.653264 6.828885 9.546759 -0.000002 -0.000001 -0.000000 3.378603 10.067737 9.131676 -25.160863 29.867560 64.113545 0.000041 113.757047 -0.000052 5.272044 -0.641873 -16.626511 -27.365421 1.792381 -27.601112 4.637204 -8.634130 -0.225388 -1.273761 0.137317 -2.094880 0.000003 0.000000 -0.000000 0.207157 1.687867 -13.992740 -0.000001 -0.002504 0.020542 -0.000002 -0.001259 0.010294 0.000000 0.000003 0.000000 -6.754629 -10.348861 14.630374 127.249962 13.651043 -2.063654 -23.627959 6.695585 -18.665657 -66.425687 17.057335 -20.980354 -0.000001 -0.000000 0.000001 -2.615489 1.625823 -14.192958 122.822811 -14.670900 3.314977 -23.639905 -4.239131 11.409534 17.032101 -20.036527 -57.625220 -0.000001 -0.000001 0.000002 
4.462933 44.465805 12.885375 0.393981 3.903648 0.126915 -0.431767 -0.655286 -0.109969 -0.837288 -0.493803 -0.210202 -0.838442 -0.496672 -0.199272 4.822798 -0.531851 3.498136 -12.297863 1.998697 -3.413225 -0.000001 0.000000 0.000000 1.217442 -8.159043 -3.888342 -24.088207 -44.688060 -62.857179 0.000109 -110.863020 0.000101 -1.537428 0.276118 37.053868 0.047659 -0.810419 6.731302 0.000003 0.003005 -0.024895 -0.000003 0.001503 -0.012450 -0.000000 0.000000 0.000000 -43.525141 -4.916377 14.750601 5.346213 19.000468 14.590735 0.653268 6.828885 9.546756 0.000002 -0.000001 -0.000001 3.352449 9.987641 9.282758 -25.019956 29.841954 64.110170 0.000071 114.084165 -0.000080 6.646802 -0.777223 -16.198992 -27.365423 1.792386 -27.601112 4.637202 -8.634126 -0.225391 -1.273764 0.137314 -2.094881 0.000001 0.000002 -0.000000 0.207506 1.689296 -14.004784 -0.000004 -0.001833 0.015032 0.000001 -0.000915 0.007525 -0.000000 -0.000000 -0.000000 -6.773928 -10.286963 14.567747 127.263568 13.784017 -2.063308 -23.582843 6.692088 -18.686839 -66.428815 17.057989 -20.924001 -0.000001 -0.000000 -0.000002 -2.615028 1.681219 -14.229161 122.827866 -14.604591 3.316001 -23.603810 -4.223556 11.386331 17.015084 -19.991328 -57.691213 -0.000001 -0.000000 0.000000 
4.464743 44.464073 12.884730 0.363960 3.901765 0.151621 -0.419736 -0.664426 -0.112492 -0.831178 -0.502151 -0.209342 -0.832278 -0.505181 -0.198240 4.915416 -0.513546 3.540351 -12.517465 2.085007 -3.315353 0.000000 0.000000 -0.000000 1.217442 -8.159044 -3.888343 -23.835830 -44.831852 -62.845971 0.000030 -111.151746 0.000026 -1.067598 -1.040318 37.117782 0.047658 -0.810420 6.731302 0.000004 0.003005 -0.024896 -0.000004 0.001501 -0.012453 -0.000001 0.000001 -0.000000 -43.525138 -4.916379 14.750599 5.346210 19.000466 14.590735 0.653261 6.828882 9.546755 0.000002 -0.000000 -0.000001 3.323667 9.910732 9.489710 -24.781489 29.806686 64.051322 0.000034 114.670994 -0.000040 8.209575 -0.796635 -15.743980 -27.365424 1.792383 -27.601112 4.637199 -8.634124 -0.225389 -1.273763 0.137315 -2.094881 0.000003 -0.000001 -0.000000 0.207864 1.690708 -14.016802 -0.000002 -0.001151 0.009470 0.000003 -0.000580 0.004740 0.000000 0.000000 0.000000 -6.775293 -10.254197 14.491283 127.275425 13.921033 -2.061648 -23.538288 6.688439 -18.709906 -66.438575 17.060581 -20.873709 -0.000002 0.000001 -0.000001 -2.597586 1.697220 -14.274797 122.816377 -14.518226 3.317263 -23.585796 -4.189866 11.287719 16.985089 -19.924946 -57.796917 -0.000001 0.000000 -0.000002 
4.467069 44.464363 12.890203 0.315483 3.889570 0.163976 -0.395217 -0.676158 -0.100526 -0.817751 -0.510615 -0.201260 -0.818863 -0.513616 -0.189908 5.077133 -0.474914 3.601472 -13.030942 2.260255 -3.178562 0.000001 0.000000 -0.000000 1.217442 -8.159043 -3.888343 -23.574938 -44.978739 -62.822058 0.000026 -111.566728 0.000027 -0.466597 -2.141780 37.059896 0.047659 -0.810415 6.731302 0.000004 0.003003 -0.024895 -0.000003 0.001505 -0.012451 0.000000 -0.000002 -0.000000 -43.525145 -4.916379 14.750601 5.346211 19.000464 14.590737 0.653265 6.828885 9.546758 0.000003 0.000001 0.000001 3.298718 9.858722 9.716145 -24.529957 29.807765 63.985315 0.000044 115.355434 -0.000035 9.727435 -0.809237 -15.359528 -27.365419 1.792381 -27.601112 4.637201 -8.634121 -0.225389 -1.273764 0.137319 -2.094880 0.000001 -0.000002 0.000000 0.208211 1.692133 -14.028817 0.000002 -0.000477 0.003946 0.000002 -0.000245 0.001954 -0.000000 -0.000002 0.000000 -6.732768 -10.200951 14.436966 127.273977 14.046268 -2.054662 -23.530552 6.686047 -18.701814 -66.494747 17.033998 -20.796826 -0.000001 -0.000000 -0.000000 -2.577484 1.717701 -14.285546 122.807962 -14.475462 3.311147 -23.583156 -4.149433 11.158896 16.962551 -19.857737 -57.895982 -0.000001 -0.000002 -0.000002 
4.469609 44.465927 12.895379 0.267673 3.910454 0.148102 -0.395254 -0.684981 -0.073907 -0.824083 -0.515449 -0.186587 -0.825307 -0.518079 -0.175033 5.236229 -0.457773 3.650323 -13.527534 2.327861 -3.095786 0.000000 -0.000000 0.000000 1.217442 -8.159043 -3.888343 -23.540296 -44.981823 -62.805714 -0.000058 -111.644974 -0.000048 -0.513126 -1.590878 37.142972 0.047659 -0.810417 6.731301 0.000003 0.003003 -0.024896 -0.000002 0.001507 -0.012450 -0.000000 0.000001 0.000001 -43.525145 -4.916374 14.750599 5.346218 19.000464 14.590737 0.653269 6.828885 9.546756 -0.000000 0.000001 0.000001 3.287498 9.829520 9.796744 -24.461348 29.928168 63.842789 0.000002 115.340325 -0.000011 9.198973 -0.930471 -15.467605 -27.365423 1.792383 -27.601110 4.637198 -8.634124 -0.225389 -1.273761 0.137319 -2.094879 0.000001 0.000002 0.000001 0.208219 1.692136 -14.028848 0.000000 -0.000487 0.003970 -0.000002 -0.000235 0.001968 -0.000000 -0.000000 -0.000000 -6.704102 -10.156705 14.447247 127.285274 14.148329 -2.035526 -23.554654 6.676509 -18.638189 -66.640810 16.948756 -20.647851 -0.000002 -0.000004 -0.000001 -2.536737 1.701608 -14.217346 122.802976 -14.557741 3.301428 -23.611809 -4.136278 11.106163 16.980248 -19.846588 -57.886693 0.000001 0.000001 0.000002 
